PathFileType	4	(X/Y/Z)	D:\TRACE\v60_Jaco2_6-2-23\JustBodyDRS_Motion3_4-v60.trc
DataRate	CameraRate	NumFrames	NumMarkers	Units	OrigDataRate	OrigDataStartFrame	OrigNumFrames
100.00	100.00	      18	9	mm	100.00	1	      7000
Frame#	Time	front left toe			Front right toe			aft left toe			aft right toe			Arm			FL body			FR body			AL Body			AR Body			
		X1	Y1	Z1	X2	Y2	Z2	X3	Y3	Z3	X4	Y4	Z4	X5	Y5	Z5	X6	Y6	Z6	X7	Y7	Z7	X8	Y8	Z8	X9	Y9	Z9	

1	0.000	-197.52098	24.33795	6.83488	193.12514	32.74877	-43.02788	-159.72972	-77.56011	587.07062	260.58435	-78.32785	588.23621	18.87612	1211.56531	68.74167	-85.77059	607.81714	-142.25182	72.27822	606.59692	-154.44061	-10.73587	441.26129	785.34631	143.34114	430.25604	770.33777	
2	0.010	-197.52617	24.33475	6.84776	193.09621	32.74740	-43.01921	-159.75867	-77.55701	587.08392	260.56012	-78.34026	588.18878	18.75147	1211.56055	68.75579	-85.75372	607.79913	-142.24289	72.29647	606.59753	-154.41867	-10.71694	441.26074	785.33344	143.32175	430.26706	770.34839	
3	0.020	-197.51524	24.33880	6.83099	193.10286	32.74826	-42.98939	-159.77933	-77.54240	587.04877	260.58142	-78.29221	588.19147	18.73667	1211.53516	68.74834	-85.74148	607.81793	-142.22591	72.27927	606.60352	-154.45273	-10.71860	441.25687	785.34210	143.41658	430.27661	770.32697	
4	0.030	-197.52817	24.33266	6.84866	193.12691	32.74665	-42.99097	-159.79143	-77.48707	587.03607	260.52490	-78.35333	588.18347	18.75030	1211.54211	68.74989	-85.74611	607.82477	-142.23904	72.25975	606.62225	-154.45120	-10.74582	441.27527	785.30609	143.36609	430.27780	770.34607	
5	0.040	-197.53976	24.32862	6.83154	193.09380	32.76402	-43.02922	-159.73354	-77.56511	587.03217	260.55362	-78.30511	588.21027	18.84360	1211.57764	68.77101	-85.76004	607.82281	-142.24890	72.23751	606.62152	-154.43997	-10.71075	441.29526	785.27997	143.37711	430.28857	770.32635	
6	0.050	-197.53386	24.30844	6.82686	193.11411	32.71027	-43.01653	-159.79143	-77.55074	587.04626	260.51770	-78.39452	588.19214	18.78747	1211.59521	68.72610	-85.78465	607.80377	-142.23494	72.29273	606.47247	-154.47078	-10.72087	441.28641	785.34503	143.30920	430.26563	770.34546	
7	0.060	-197.54744	24.31690	6.87355	193.08549	32.77893	-43.02782	-159.72987	-77.57670	587.02588	260.57193	-78.28696	588.21454	18.76268	1211.58752	68.74241	-85.76937	607.80072	-142.23853	72.26318	606.60492	-154.44067	-10.72778	441.25323	785.32727	143.38968	430.29776	770.32684	
8	0.070	-197.50450	24.29717	6.85452	193.09908	32.75193	-43.01408	-159.79074	-77.55539	587.07788	260.53955	-78.34465	588.19739	18.78658	1211.57581	68.74920	-85.75953	607.79523	-142.23712	72.30244	606.46729	-154.44890	-10.74114	441.26764	785.31567	143.32423	430.28912	770.33954	
9	0.080	-197.51930	24.32700	6.84326	193.02991	32.76449	-43.05009	-159.82091	-77.48122	587.06018	260.56671	-78.32355	588.22064	18.76868	1211.55261	68.74883	-85.78716	607.81207	-142.22595	72.20621	606.60742	-154.43768	-10.71486	441.26910	785.36005	143.36815	430.29846	770.31470	
10	0.090	-197.52118	24.33368	6.82164	193.09412	32.74354	-42.99170	-159.82234	-77.46003	587.05225	260.59787	-78.29884	588.20758	18.72826	1211.55493	68.76354	-85.80163	607.80994	-142.23006	72.18877	606.62427	-154.47548	-10.72120	441.28351	785.32416	143.34344	430.29681	770.32306	
11	0.100	-197.53418	24.31067	6.84957	193.11191	32.75913	-43.00671	-159.73341	-77.59843	587.04492	260.54062	-78.32961	588.18713	18.69950	1211.56128	68.75853	-85.79027	607.80353	-142.23727	72.31792	606.46368	-154.43559	-10.75313	441.27628	785.32532	143.32495	430.30756	770.32764	
12	0.110	-197.49887	24.28721	6.85774	193.11385	32.73325	-42.99381	-159.06226	-78.25312	587.40326	260.59387	-78.32116	588.23792	18.69978	1211.57373	68.75002	-85.78942	607.80316	-142.24295	72.23517	606.57483	-154.41650	-10.75168	441.27853	785.31219	143.34464	430.28348	770.35632	
13	0.120	-197.51523	24.30045	6.86568	193.10294	32.73656	-42.98889	-159.73216	-77.58825	587.04034	260.60434	-78.34594	588.21350	18.74530	1211.58704	68.74428	-85.77439	607.77551	-142.23781	72.20595	606.60089	-154.39255	-10.71994	441.25278	785.34308	143.36014	430.29303	770.33820	
14	0.130	-197.51451	24.31215	6.85014	193.08372	32.75860	-43.03447	-159.75409	-77.53904	587.06500	260.56070	-78.31029	588.20178	18.73112	1211.60901	68.74574	-85.78358	607.79004	-142.22212	72.24213	606.43958	-154.45541	-10.76286	441.27380	785.28436	143.30519	430.29535	770.33868	
15	0.140	-197.53378	24.29589	6.85236	193.14162	32.72263	-42.98062	-159.06688	-78.23807	587.36865	260.56229	-78.33554	588.20239	18.71078	1211.54541	68.74837	-85.78776	607.81909	-142.22928	72.22043	606.62122	-154.43800	-10.74964	441.27670	785.30402	143.38866	430.29980	770.30627	
16	0.150	-197.50951	24.31741	6.85403	193.06351	32.76377	-43.01979	-159.70525	-77.59818	587.06305	260.59009	-78.31516	588.19617	18.68881	1211.55579	68.72948	-85.79895	607.80396	-142.21616	72.25707	606.47650	-154.47667	-10.75201	441.27042	785.31549	143.33925	430.28668	770.34692	
17	0.160	-197.52165	24.29116	6.87069	193.07941	32.74995	-43.00489	-159.80182	-77.51618	587.04791	260.53940	-78.31647	588.18726	18.67655	1211.57507	68.75993	-85.78288	607.77893	-142.22809	72.18356	606.59656	-154.42796	-10.73886	441.28815	785.33032	143.31538	430.27457	770.35059	
18	0.170	-197.52890	24.29021	6.84999	193.05080	32.76607	-43.00931	-159.76636	-77.59491	587.03888	260.54996	-78.35415	588.19879	18.76159	1211.58447	68.77286	-85.79827	607.78522	-142.22748	72.23898	606.48993	-154.44661	-10.75951	441.28177	785.33966	143.33553	430.30835	770.32819	
